<?xml version="1.0" encoding="utf-8"?>
<!-- Generator: Adobe Illustrator 27.8.1, SVG Export Plug-In . SVG Version: 6.00 Build 0)  -->
<svg version="1.1" id="Capa_1" xmlns="http://www.w3.org/2000/svg" xmlns:xlink="http://www.w3.org/1999/xlink" x="0px" y="0px"
	 viewBox="0 0 286.29 306.16" style="enable-background:new 0 0 286.29 306.16;" xml:space="preserve">
<g>
	<path d="M95.12,207.28c0.12-0.6,0.22-1.21,0.37-1.8c0.62-2.5,2.83-4.08,5.47-3.95c2.55,0.13,4.56,2,4.96,4.6
		c0.36,2.38-1.11,4.78-3.45,5.63c-7.2,2.62-15.2-1.19-17.71-8.45c-2.51-7.25,1.37-15.07,8.73-17.57c7.23-2.45,15.15,1.54,17.44,8.93
		c1.69,5.43,5.12,8.8,10.78,9.76c6.78,1.14,13.7-4.04,14.53-10.86c0.89-7.36-4.11-13.9-11.18-14.62c-0.56-0.06-1.13-0.09-1.69-0.09
		c-27.51-0.01-55.02-0.01-82.53-0.01c-0.43,0-0.87,0-1.72,0c6.66,12.19,14.96,22.67,25.13,31.66
		c18.92,16.72,40.96,26.59,66.08,29.08c54.04,5.36,96.65-25.71,114.84-60.62c-0.59-0.04-1.13-0.11-1.66-0.11
		c-27.38,0-54.77-0.01-82.15,0.01c-6.88,0-12.53,4.93-13.09,11.32c-0.63,7.21,3.7,12.91,10.81,14.22
		c6.24,1.16,12.33-2.79,14.41-9.37c1.68-5.33,5.25-8.58,10.69-9.74c5.59-1.19,11.48,1.52,14.46,6.57c2.95,4.99,2.35,11.4-1.5,15.99
		c-3.58,4.26-10.06,5.91-15.27,3.87c-2.21-0.86-3.62-3.28-3.27-5.59c0.39-2.6,2.4-4.47,4.96-4.6c2.57-0.13,4.77,1.38,5.43,3.76
		c0.18,0.65,0.28,1.32,0.42,1.98c4.05-0.93,6.87-5.2,6.36-9.5c-0.55-4.64-4.53-8.11-9.19-8.01c-4.22,0.09-7.27,2.55-8.71,7.02
		c-3.34,10.43-14.74,15.45-24.42,10.77c-7.43-3.59-11.37-11.75-9.56-19.78c1.79-7.9,8.81-13.61,17.02-13.65
		c13.82-0.06,27.63-0.02,41.45-0.02c25.12,0,50.25,0,75.37,0c3.85,0,6.44,2.49,6.09,5.79c-0.29,2.68-2.32,4.66-4.95,4.82
		c-2.71,0.16-4.86-1.44-5.53-4.11c-0.12-0.49-0.2-0.98-0.36-1.76c-0.55,0-1.15,0-1.74,0c-6.22,0-12.44,0.05-18.65-0.03
		c-1.41-0.02-2.07,0.51-2.73,1.7c-18.42,33.01-45.92,54.32-83.02,61.74c-41.72,8.34-78.4-2.77-109.52-31.82
		c-9.25-8.63-16.67-18.75-22.61-29.92c-0.64-1.2-1.32-1.72-2.73-1.7c-6.22,0.08-12.44,0.03-18.65,0.03c-0.56,0-1.11,0.05-1.73,0.07
		c-0.13,0.61-0.23,1.15-0.37,1.69c-0.7,2.81-3.04,4.42-5.9,4.07c-2.64-0.33-4.67-2.68-4.61-5.34c0.07-2.75,2.19-4.97,4.99-5.21
		c0.44-0.04,0.88-0.02,1.32-0.02c38.69,0,77.38-0.01,116.07,0.01c10.29,0,18.23,7.95,18.03,17.95c-0.17,8.45-6.54,15.75-14.83,17
		c-8.7,1.32-16.79-3.7-19.52-12.12c-1.71-5.25-5.46-7.79-10.46-7.07c-4.06,0.58-7.35,4.27-7.53,8.45
		C88.54,202.55,91.24,206.38,95.12,207.28z"/>
	<path d="M264.43,119.75c2.89,0,5.64,0,8.48,0c0.15-0.67,0.28-1.33,0.45-1.97c0.69-2.53,3.2-4.24,5.7-3.91
		c2.68,0.36,4.72,2.63,4.75,5.26c0.03,2.59-1.87,4.83-4.48,5.25c-0.62,0.1-1.25,0.12-1.87,0.12c-90.12,0-180.23,0-270.35,0
		c-3.52,0-5.55-1.3-6.23-3.99c-0.75-2.95,0.92-5.74,3.9-6.5c2.81-0.72,5.61,0.97,6.36,3.85c0.16,0.6,0.27,1.21,0.4,1.84
		c2.85,0,5.65,0,8.52,0c1.77-36.73,16.2-67.32,44.44-90.9C87.94,9.24,115.28,0,145.78,0.83C212.49,2.64,263.6,57.45,264.43,119.75z
		 M259.83,119.76c-2.91-43.62-22.12-77.26-59.98-99.04c-41.5-23.87-92.84-19.74-130.1,9.89c-28.54,22.7-43.13,52.67-44.94,89.15
		C103.26,119.76,181.25,119.76,259.83,119.76z"/>
	<path d="M142.05,237.06c-38.23-1.15-69.15-16.63-92.21-47.42c-0.62-0.83-1.99-1.87-0.72-2.86c1.34-1.05,1.88,0.61,2.5,1.44
		c18.32,24.7,42.5,40.47,72.94,44.8c44.67,6.35,80.94-9.13,108.44-44.97c0.31-0.4,0.52-0.95,0.92-1.16
		c0.42-0.23,1.09-0.31,1.49-0.11c0.26,0.12,0.39,0.92,0.26,1.31c-0.19,0.57-0.63,1.07-1.01,1.57
		c-18.58,25.06-43.22,40.34-73.95,45.77c-2.04,0.36-4.09,0.64-6.16,0.81C150.43,236.56,146.29,236.78,142.05,237.06z"/>
	<path d="M219.09,269.97c0,6.4-0.02,12.8,0.04,19.19c0.01,0.54,0.64,1.07,0.98,1.61c0.22,0.35,0.43,0.71,0.64,1.06
		c-0.35,0.18-0.7,0.49-1.06,0.5c-1.58,0.06-3.16,0.02-5.23,0.02c0.45-0.76,0.6-1.39,0.98-1.58c0.89-0.45,0.94-1.13,0.94-1.97
		c-0.02-6.61-0.02-13.22,0-19.83c0-1.03,0.03-1.95-1.09-2.5c-0.27-0.13-0.32-0.69-0.54-1.23c2.04,0,3.82-0.11,5.58,0.07
		c0.53,0.05,1.27,0.8,1.44,1.37c1.73,5.69,3.36,11.41,5.02,17.12c0.15,0.5,0.27,1.01,0.66,1.47c0-0.62,0-1.25,0-1.87
		c-0.02-4.87-0.05-9.74-0.04-14.61c0-0.9-0.1-1.62-0.97-2.14c-0.34-0.21-0.43-0.82-0.72-1.42c2.12,0,3.9,0,6.07,0
		c-0.34,0.65-0.59,1.09-0.82,1.55c-0.3,0.61-0.85,1.22-0.85,1.83c-0.06,7.3-0.04,14.61-0.04,21.91c0,0.54,0,1.08,0,1.78
		c-1.24,0-2.42,0.2-3.48-0.08c-0.63-0.17-1.35-1-1.55-1.68c-1.95-6.4-3.79-12.84-5.67-19.26c-0.13-0.45-0.3-0.9-0.45-1.35
		C218.98,269.95,219.03,269.96,219.09,269.97z"/>
	<path d="M49.83,280.54c0.87,2.05,1.69,4.02,2.55,5.99c0.67,1.55,0.77,3.46,2.69,4.27c0.08,0.04-0.06,1.29-0.36,1.44
		c-2.09,1.05-4.25,0.16-5.08-2c-0.89-2.31-1.73-4.65-2.66-6.95c-0.69-1.69-1.47-2.11-3.54-1.98c0,2.8-0.03,5.61,0.04,8.42
		c0.01,0.35,0.65,0.66,0.94,1.04c0.31,0.4,0.55,0.85,1.01,1.58c-2.56,0-4.64,0.02-6.71-0.02c-0.28,0-0.79-0.28-0.79-0.42
		c0.01-0.34,0.17-0.86,0.42-0.98c1.19-0.57,1.15-1.56,1.15-2.64c-0.02-6.56-0.02-13.12,0-19.68c0-0.83-0.03-1.55-0.89-2.01
		c-0.26-0.14-0.34-0.64-0.5-0.98c0.32-0.15,0.65-0.44,0.97-0.44c2.93,0.02,5.87-0.05,8.79,0.17c3.61,0.27,5.53,2.48,5.61,6.07
		c0.02,1.19,0.02,2.39,0,3.58C53.41,278.04,52.34,279.57,49.83,280.54z M43.35,267.47c0,3.73-0.01,7.19,0.01,10.65
		c0,0.26,0.13,0.63,0.32,0.76c1.51,1.01,5.32-0.38,5.53-2.22c0.27-2.28,0.21-4.64-0.02-6.93c-0.07-0.71-1.03-1.68-1.78-1.91
		C46.2,267.45,44.82,267.57,43.35,267.47z"/>
	<path d="M174.39,281.32c0,2.76-0.03,5.53,0.04,8.3c0.01,0.37,0.57,0.72,0.86,1.08c0.32,0.4,0.64,0.81,0.95,1.22
		c-0.08,0.14-0.17,0.28-0.25,0.42c-2.16,0-4.33,0.01-6.49-0.02c-0.22,0-0.63-0.33-0.61-0.45c0.05-0.35,0.2-0.84,0.46-0.97
		c1.1-0.55,1.13-1.46,1.12-2.5c-0.03-6.56-0.02-13.12-0.01-19.68c0-0.86,0.06-1.66-0.9-2.15c-0.26-0.13-0.32-0.64-0.48-0.98
		c0.33-0.14,0.67-0.41,1-0.41c2.88,0.01,5.77-0.05,8.64,0.15c3.69,0.26,5.64,2.46,5.71,6.13c0.02,1.14,0.02,2.29,0.01,3.43
		c-0.03,3.11-1.08,4.63-3.61,5.63c0.95,2.29,1.9,4.58,2.85,6.87c0.52,1.27,0.82,2.6,2.28,3.32c0.69,0.34,0.58,1.19-0.3,1.57
		c-2.21,0.94-4.22,0.1-5.07-2.12c-0.89-2.31-1.73-4.65-2.67-6.94C177.23,281.55,176.45,281.16,174.39,281.32z M174.41,278.96
		c1.13,0,2.08,0.08,3.01-0.02c1.81-0.19,2.79-1,2.94-2.8c0.16-2.01,0.14-4.07-0.1-6.07c-0.09-0.78-0.86-1.87-1.55-2.1
		c-1.33-0.44-2.84-0.38-4.29-0.52C174.41,271.48,174.41,275.14,174.41,278.96z"/>
	<path d="M156.48,265.25c2.19,0,3.96,0,5.99,0c-0.21,0.56-0.25,1.2-0.54,1.35c-1.13,0.57-1.07,1.51-1.07,2.53
		c0.02,5.32,0.02,10.64,0.01,15.96c-0.01,5.73-3.53,8.57-9.15,7.41c-3.3-0.68-5.22-3.11-5.24-6.79c-0.04-5.47-0.03-10.94,0.01-16.41
		c0.01-1.15-0.03-2.14-1.24-2.74c-0.3-0.15-0.39-0.74-0.66-1.3c2.67,0,5.04,0,7.84,0c-0.39,0.63-0.55,1.23-0.93,1.44
		c-0.94,0.52-1.08,1.25-1.07,2.22c0.04,5.32,0.01,10.64,0.02,15.96c0,0.69,0.04,1.4,0.17,2.07c0.39,2.11,1.63,3.11,3.73,3.1
		c2.14-0.01,3.34-1,3.72-3.1c0.11-0.58,0.12-1.19,0.12-1.78c0.01-5.47-0.01-10.94,0.02-16.41c0-0.9-0.09-1.63-0.99-2.12
		C156.89,266.45,156.79,265.88,156.48,265.25z"/>
	<path d="M93.04,266.6c0.2-0.55,0.35-0.96,0.48-1.32c0.85,0,1.63,0,2.47,0c0,2.36,0,4.64,0,7.04c-1.23,0-2.44,0-3.81,0
		c-0.04-0.71-0.05-1.49-0.14-2.26c-0.2-1.72-1.21-2.62-2.86-2.6c-1.66,0.02-2.59,0.95-2.72,2.71c-0.39,5.31-0.28,5.78,4.82,7.48
		c5.94,1.97,5.67,7.12,4.38,11.91c-0.16,0.61-0.76,1.17-1.28,1.6c-2.44,2.04-7.38,2.19-9.97,0.33c-2.29-1.65-2.41-4.04-2.21-6.64
		c1.41,0,2.77,0,4.32,0c0,0.85-0.04,1.68,0.01,2.51c0.1,1.84,0.98,2.77,2.61,2.81c1.8,0.05,2.93-0.91,3.05-2.73
		c0.09-1.38,0.27-2.84-0.05-4.15c-0.24-0.98-1.04-2.04-1.89-2.62c-1.25-0.84-2.77-1.3-4.19-1.9c-2.52-1.07-3.81-2.92-3.66-5.7
		c0.04-0.74,0.01-1.49,0.01-2.24c0.01-2.17,0.59-4.1,2.68-5.1c2.26-1.08,4.59-1.16,6.86,0.1C92.3,266,92.6,266.27,93.04,266.6z"/>
	<path d="M74.91,265.19c0,2.05,0,3.93,0,5.88c-1.06,0.32-1.8,0.37-2.16-1.05c-0.66-2.63-0.74-2.61-3.53-2.61c-0.74,0-1.48,0-2.35,0
		c0,3.42,0,6.76,0,10.26c1.02,0,2.03,0.12,2.97-0.05c0.45-0.08,0.8-0.72,1.19-1.11c0.38-0.37,0.75-0.74,1.12-1.12
		c0.12,0.09,0.23,0.18,0.35,0.27c0,2.07,0,4.14,0,6.51c-0.52-0.26-1.14-0.37-1.22-0.63c-0.48-1.67-1.71-1.68-3.05-1.56
		c-0.43,0.04-0.87,0.06-1.49,0.1c0,1.7,0.02,3.33-0.01,4.95c-0.03,1.6-0.11,3.21-0.18,5c1.6,0,3.5,0.03,5.4-0.03
		c0.29-0.01,0.67-0.39,0.82-0.69c0.29-0.57,0.52-1.19,0.65-1.82c0.23-1.13,0.84-1.48,2-1.08c0,1.88,0,3.8,0,5.94
		c-1.28,0-2.56,0-3.84,0c-3.13,0-6.26,0.01-9.39-0.02c-0.39,0-0.79-0.25-1.18-0.39c0.23-0.39,0.36-0.96,0.7-1.14
		c0.9-0.48,1.03-1.18,1.02-2.1c-0.03-6.66-0.03-13.32,0-19.98c0-1-0.05-1.86-1.08-2.37c-0.2-0.1-0.38-0.49-0.35-0.72
		c0.03-0.18,0.39-0.44,0.61-0.44C66.22,265.19,70.53,265.19,74.91,265.19z"/>
	<path d="M126.63,285.01c-0.44,1.83-0.85,3.55-1.2,5.05c0.51,0.72,0.9,1.27,1.29,1.82c-0.72,0.16-1.42,0.4-2.15,0.46
		c-0.98,0.08-1.97,0.02-3.28,0.02c0.28-0.63,0.42-1.04,0.63-1.41c0.42-0.72,1.1-1.36,1.29-2.13c1.85-7.45,3.61-14.93,5.4-22.4
		c0.1-0.43,0.23-0.86,0.35-1.26c3.86-0.4,3.85-0.4,4.74,3.21c1.67,6.73,3.35,13.46,5,20.2c0.24,0.97,0.36,1.93,1.44,2.43
		c0.26,0.12,0.32,0.71,0.53,1.25c-2.44,0-4.64,0-7.1,0c0.22-0.46,0.29-0.98,0.56-1.12c0.97-0.49,0.83-1.2,0.59-2.01
		c-0.38-1.32-0.33-3.17-1.21-3.85s-2.66-0.23-4.04-0.25C128.56,285,127.62,285.01,126.63,285.01z M127.13,282.74
		c2.14,0,4.03,0,6.09,0c-0.98-4.25-1.93-8.34-2.87-12.42c-0.1-0.01-0.21-0.02-0.31-0.04C129.08,274.4,128.12,278.51,127.13,282.74z"
		/>
	<path d="M197.95,265.11c1.39,0,2.62,0,3.98,0c1.03,4.14,2.05,8.27,3.07,12.4c0.96,3.85,1.88,7.71,2.9,11.55
		c0.17,0.65,0.75,1.18,1.11,1.79c0.24,0.4,0.42,0.83,0.75,1.51c-2.33,0-4.26,0.02-6.19-0.02c-0.29-0.01-0.58-0.25-0.86-0.38
		c0.14-0.29,0.22-0.75,0.44-0.84c1.04-0.41,0.86-1.14,0.65-1.94c-0.34-1.34-0.66-2.69-1.01-4.16c-2.15,0-4.29-0.04-6.41,0.04
		c-0.32,0.01-0.78,0.5-0.91,0.87c-0.31,0.89-0.45,1.83-0.67,2.74c-0.22,0.94-0.77,1.94,0.7,2.44c0.19,0.06,0.19,0.67,0.34,1.25
		c-1.67,0-3.14,0.03-4.61-0.02c-0.25-0.01-0.66-0.32-0.7-0.54c-0.04-0.25,0.24-0.57,0.41-0.84c0.42-0.67,1.07-1.27,1.25-1.99
		C194.15,281.06,196.03,273.14,197.95,265.11z M202.26,282.78c-1-4.3-1.96-8.46-2.92-12.63c-0.08,0-0.17,0.01-0.25,0.01
		c-0.96,4.16-1.92,8.31-2.91,12.62C198.29,282.78,200.18,282.78,202.26,282.78z"/>
	<path d="M102.59,265.25c5.33,0,10.43,0,15.7,0c0,2.2,0,4.36,0,6.65c-1.01,0.31-1.82,0.21-2.01-1.17c-0.04-0.29-0.15-0.57-0.23-0.86
		c-0.73-2.49-0.73-2.49-3.56-2.15c0,0.46,0,0.94,0,1.42c0,6.41,0.01,12.83-0.01,19.24c0,0.95,0.1,1.71,1.04,2.25
		c0.4,0.23,0.58,0.85,1.04,1.6c-2.83,0-5.23,0-8.09,0c0.48-0.76,0.79-1.27,1.12-1.77c0.27-0.43,0.8-0.85,0.8-1.27
		c0.05-7.1,0.04-14.21,0.04-21.28c-2.4-0.76-2.85-0.54-3.45,1.63c-0.11,0.38-0.26,0.76-0.32,1.15c-0.21,1.3-0.89,1.65-2.08,1.15
		C102.59,269.67,102.59,267.55,102.59,265.25z"/>
	<path d="M237.57,271.85c0-2.21,0-4.34,0-6.57c5.28,0,10.47,0,15.76,0c0,2.22,0,4.34,0,6.55c-1.13,0.44-1.86,0.2-2.07-1.12
		c-0.05-0.34-0.19-0.67-0.29-1c-0.69-2.38-0.69-2.38-3.54-1.94c0,0.49,0,1.02,0,1.55c0,6.32,0.02,12.63-0.02,18.94
		c-0.01,1.02,0.14,1.8,1.11,2.38c0.39,0.24,0.54,0.88,0.95,1.6c-2.8,0-5.2,0-7.98,0c0.36-0.66,0.51-1.34,0.93-1.61
		c0.88-0.57,1.07-1.28,1.06-2.25c-0.03-6.36-0.02-12.73-0.02-19.09c0-0.49,0-0.97,0-1.42c-2.65-0.69-2.88-0.53-3.62,1.97
		C239.54,270.87,239.72,272.6,237.57,271.85z"/>
	<path d="M142.09,229.13c-4.43-0.05-7.91-3.62-7.88-8.09c0.03-4.5,3.74-8.13,8.19-8.02c4.42,0.11,7.91,3.71,7.88,8.15
		C150.25,225.71,146.68,229.18,142.09,229.13z"/>
	<path d="M96.13,42.29c0.46-0.49,0.79-0.84,1.23-1.31c5.56,5.08,11.07,10.11,16.57,15.14c0.24-0.22,0.48-0.43,0.71-0.65
		c-0.71-0.94-1.34-1.95-2.14-2.8c-3.8-4.01-7.64-7.98-11.47-11.97c-0.5-0.52-0.99-1.06-1.48-1.59c0.11-0.12,0.23-0.24,0.34-0.35
		c5.48,5.01,10.96,10.02,16.45,15.02c0.23-0.2,0.46-0.4,0.69-0.61c-0.61-0.85-1.13-1.77-1.84-2.53c-3.97-4.2-7.98-8.36-11.97-12.53
		c-0.3-0.32-0.66-0.6-0.88-0.97c-0.16-0.26-0.13-0.63-0.19-0.96c0.37,0.04,0.85-0.07,1.08,0.13c1.15,0.97,2.23,2.03,3.34,3.05
		c3.56,3.28,7.1,6.56,10.68,9.81c0.63,0.57,1.38,1,2.08,1.5c0.17-0.14,0.33-0.28,0.5-0.42c-0.6-0.84-1.12-1.76-1.82-2.5
		c-4.05-4.29-8.15-8.54-12.22-12.81c-0.34-0.36-0.66-0.73-0.86-1.26c5.83,4.62,10.9,10.13,16.75,14.71
		c0.19-0.17,0.38-0.34,0.57-0.52c-0.67-0.9-1.27-1.87-2.03-2.68c-4.31-4.56-8.67-9.08-13.13-13.75c0.34-0.44,0.66-0.84,1.01-1.29
		c0.3,0.2,0.53,0.3,0.71,0.47c5.97,5.57,11.94,11.13,17.9,16.71c2.04,1.91,3.06,4.27,3.66,7.03c0.6,2.77,1.44,5.69,2.99,8
		c2.46,3.66,5.59,6.87,8.6,10.46c3.67-3.88,6.36-7.83,7.86-12.49c0.82-2.56,1.44-5.2,1.91-7.85c1.22-7,5.57-11.78,10.98-15.83
		c4.21-3.15,8.71-5.76,14.01-6.55c8.41-1.25,13.21,3.68,11.35,11.98c-2,8.94-7.16,15.94-14.45,21.36
		c-3.59,2.67-8.04,3.05-12.25,3.96c-6,1.3-11.04,4.32-15.74,8.61c2.52,2.16,4.97,4.27,7.43,6.38c7.73,6.61,15.51,13.15,23.13,19.88
		c1.26,1.11,2.23,2.94,2.59,4.6c0.85,3.92-2.22,6.69-6.08,5.59c-1.43-0.41-2.97-1.26-3.93-2.37c-7.3-8.37-14.47-16.86-21.69-25.3
		c-1.51-1.76-3.06-3.49-4.78-5.45c-0.67,0.7-1.28,1.28-1.82,1.92c-6.46,7.69-12.9,15.4-19.38,23.07c-1.78,2.11-3.67,4.13-5.63,6.08
		c-0.82,0.82-1.87,1.53-2.94,1.94c-1.96,0.75-4.01,0.73-5.64-0.81c-1.51-1.43-1.83-3.36-1.1-5.21c0.55-1.41,1.38-2.9,2.49-3.87
		c8-6.96,16.12-13.79,24.18-20.69c2.19-1.87,4.32-3.8,6.88-6.05c-4.25-3.36-8.14-6.74-12.35-9.63c-1.76-1.21-4.19-1.59-6.37-2.01
		c-2.49-0.48-4.71-1.38-6.47-3.19C108.14,54.76,102.23,48.6,96.13,42.29z"/>
	<path d="M29.07,108.61c1.35-10.42,3.72-20.04,7.71-29.17c15.72-36.03,42.56-59.56,80.98-67.8c42.41-9.09,79.14,3.03,108.91,34.67
		c16.01,17.02,25.17,37.59,28.52,60.71c0.14,1,0.99,2.69-0.84,2.94c-1.57,0.21-1.24-1.42-1.38-2.38
		c-3.54-24.24-13.69-45.27-30.82-62.78c-17.46-17.84-38.57-29.06-63.35-32.35c-41.02-5.45-75.37,7.7-102.41,39
		c-14,16.21-21.97,35.36-24.92,56.58c-0.01,0.06,0.01,0.14-0.02,0.19c-0.46,0.61-0.93,1.21-1.4,1.82
		C29.65,109.44,29.25,108.86,29.07,108.61z"/>
	<path d="M91.34,82.88c0-3.53,0-6.9,0-10.48c0.94,0,2.09-0.07,3.23,0.02c1.59,0.13,2.52,0.97,2.5,2.68
		c-0.02,1.63,0.03,3.26-0.01,4.89c-0.05,1.98-0.91,2.82-2.89,2.9C93.18,82.91,92.19,82.88,91.34,82.88z M93.21,81.92
		c1.64,0.22,2.4-0.35,2.36-1.91c-0.04-1.62,0-3.24-0.01-4.86c-0.01-1.54-0.78-2.08-2.36-1.76C93.21,76.23,93.21,79.01,93.21,81.92z"
		/>
	<path d="M211.93,77.48c0-0.81-0.03-1.63,0.01-2.44c0.09-1.82,0.92-2.67,2.63-2.73c1.84-0.07,2.82,0.73,2.91,2.63
		c0.09,1.87,0.1,3.75-0.02,5.62c-0.11,1.72-1.18,2.58-2.88,2.49c-1.6-0.09-2.56-0.91-2.63-2.57
		C211.9,79.48,211.93,78.48,211.93,77.48L211.93,77.48z M215.91,77.57c0.05,0,0.09,0,0.14,0c-0.05-1.06,0.02-2.15-0.21-3.17
		c-0.1-0.46-0.8-1.11-1.2-1.09c-0.41,0.02-1.11,0.73-1.13,1.17c-0.12,2.12-0.12,4.25,0,6.37c0.02,0.44,0.74,0.84,1.13,1.25
		c0.42-0.45,1.11-0.85,1.21-1.35C216.05,79.71,215.91,78.63,215.91,77.57z"/>
	<path d="M203.82,80.15c0.53,0.35,0.92,0.57,1.28,0.84c0.48,0.36,0.93,0.75,1.39,1.12c0.32-0.54,0.73-1.05,0.93-1.63
		c0.15-0.44,0.03-0.98,0.03-1.26c-1.22-0.26-2.73-0.14-3.26-0.8c-0.67-0.83-0.73-2.3-0.73-3.5c0-1.75,1.03-2.57,2.78-2.57
		c1.77,0.01,2.64,0.82,2.69,2.63c0.05,1.94,0.06,3.88-0.02,5.82c-0.07,1.63-1.15,2.38-3.03,2.22
		C204.34,82.89,203.43,82.23,203.82,80.15z M207.51,75.77c-0.09-0.5-0.1-1.28-0.4-1.92c-0.13-0.29-0.83-0.32-1.27-0.47
		c-0.31,1.05-0.79,2.1-0.86,3.17c-0.04,0.56,0.65,1.17,1.01,1.76c0.44-0.27,1.01-0.46,1.27-0.85
		C207.51,77.09,207.42,76.51,207.51,75.77z"/>
	<path d="M199.17,79.43c-1.42-0.47-3.21-0.58-3.45-1.23c-0.5-1.42-0.48-3.2-0.08-4.67c0.16-0.6,1.85-1.04,2.87-1.09
		c1.25-0.06,2.08,0.81,2.11,2.16c0.04,2.13,0.07,4.26-0.01,6.39c-0.05,1.48-1.12,2.01-2.44,2.04c-1.15,0.02-2.34-0.05-2.72-1.45
		c-0.09-0.34,0.16-0.78,0.25-1.17c0.36,0.13,0.78,0.19,1.08,0.41c0.52,0.38,0.96,0.87,1.44,1.31c0.31-0.67,0.67-1.32,0.92-2.01
		C199.27,79.78,199.17,79.37,199.17,79.43z M199.16,76.32c0-0.8,0.11-1.17-0.02-1.4c-0.33-0.56-0.77-1.06-1.16-1.59
		c-0.43,0.51-1.09,0.96-1.22,1.54c-0.18,0.81-0.07,1.74,0.12,2.57c0.08,0.36,0.67,0.83,1.03,0.83c0.37,0.01,0.91-0.42,1.09-0.79
		C199.22,77.01,199.15,76.4,199.16,76.32z"/>
	<path d="M80.36,72.61c0,0.54,0.06,1.11-0.02,1.65c-0.05,0.31-0.33,0.58-0.51,0.86c-0.32-0.2-0.66-0.37-0.95-0.6
		c-0.47-0.38-0.88-0.86-1.39-1.17c-0.08-0.05-0.81,0.55-0.78,0.8c0.08,0.87,0.26,1.78,0.63,2.56c0.16,0.34,0.88,0.4,1.33,0.61
		c1.63,0.76,2.3,2.51,1.64,4.25c-0.45,1.18-2.25,1.93-3.7,1.25c-0.69-0.33-1.1-1.31-1.54-2.05c-0.05-0.09,0.43-0.65,0.74-0.76
		c0.18-0.07,0.59,0.26,0.79,0.5c0.43,0.5,0.8,1.05,1.19,1.58c0.35-0.31,0.99-0.63,0.99-0.94c-0.01-0.88-0.17-1.81-0.5-2.62
		c-0.14-0.34-0.84-0.46-1.29-0.67c-1.75-0.82-2.43-2.33-1.77-4.15c0.47-1.31,1.58-1.46,2.78-1.33C78.7,72.43,79.39,72.5,80.36,72.61
		z"/>
	<path d="M67.46,72.47c1.62,0,3.23,0,4.86,0c0,0.75,0,1.39,0,2.57c-0.5-0.73-0.65-1.16-0.94-1.33c-0.43-0.25-0.99-0.5-1.45-0.42
		c-0.3,0.05-0.68,0.64-0.73,1.03c-0.11,0.92-0.03,1.86-0.03,3.05c0.85-0.22,1.47-0.38,2.2-0.58c0.03,0.46,0.06,1.04,0.1,1.75
		c-0.74-0.18-1.38-0.34-2.19-0.53c0,1.43,0,2.6,0,4.29c1.14-0.42,2.12-0.79,3.21-1.19c0.02,0.28,0.06,0.92,0.11,1.67
		c-1.85,0-3.58,0-5.13,0C67.46,79.36,67.46,75.97,67.46,72.47z"/>
	<path d="M86.71,82.81c-0.62,0-1.42,0-2.01,0c0-3.14,0-6.19,0-9.8c-0.69,0.72-1.2,1.25-1.82,1.89c0-0.79,0-1.56,0-2.44
		c1.88,0,3.79,0,5.72,0c0,0.86,0,1.61,0,2.7c-0.63-0.84-1.06-1.4-1.48-1.96c-0.14,0.06-0.27,0.12-0.41,0.18
		C86.71,76.46,86.71,79.55,86.71,82.81z"/>
	<path d="M190.06,72.47c0.5,0,1.15,0,2.19,0c0,3.44,0,6.82,0,10.3c-0.39,0-1.16,0-1.85,0C190.63,79.33,191.15,75.91,190.06,72.47z"
		/>
	<g>
		<path d="M64.58,165.51l-2.48-8.15H49.6l-2.48,8.15h-7.83l12.09-34.4h8.88l12.14,34.4L64.58,165.51L64.58,165.51z M60.36,151.26
			l-2.48-7.97c-0.16-0.53-0.36-1.21-0.62-2.05s-0.52-1.69-0.77-2.55s-0.46-1.62-0.62-2.26c-0.16,0.64-0.37,1.43-0.64,2.38
			c-0.27,0.95-0.54,1.84-0.79,2.68s-0.43,1.44-0.54,1.8l-2.46,7.97H60.36z"/>
		<path d="M76.71,131.25h10.66c4.56,0,8.01,0.64,10.36,1.92c2.34,1.28,3.52,3.53,3.52,6.75c0,1.3-0.21,2.47-0.62,3.52
			s-1.01,1.91-1.79,2.58s-1.73,1.11-2.86,1.31v0.23c1.14,0.23,2.17,0.64,3.09,1.21s1.66,1.4,2.21,2.48
			c0.55,1.09,0.83,2.53,0.83,4.32c0,2.08-0.51,3.86-1.52,5.34c-1.02,1.48-2.46,2.62-4.35,3.41c-1.88,0.79-4.12,1.18-6.71,1.18H76.71
			V131.25z M83.98,144.82h4.22c2.11,0,3.57-0.33,4.38-1c0.81-0.66,1.22-1.64,1.22-2.94c0-1.31-0.48-2.25-1.44-2.82
			s-2.48-0.85-4.56-0.85h-3.82V144.82z M83.98,150.58v8.93h4.73c2.19,0,3.71-0.42,4.57-1.27c0.86-0.84,1.29-1.98,1.29-3.4
			c0-0.84-0.19-1.59-0.56-2.23s-1-1.14-1.88-1.5s-2.1-0.54-3.64-0.54L83.98,150.58L83.98,150.58z"/>
		<path d="M137.03,165.51h-7.24v-14.79h-13.57v14.79h-7.26v-34.26h7.26v13.43h13.57v-13.43h7.24V165.51z"/>
		<path d="M166.65,165.51l-2.48-8.15h-12.49l-2.48,8.15h-7.83l12.09-34.4h8.88l12.14,34.4L166.65,165.51L166.65,165.51z
			 M162.43,151.26l-2.48-7.97c-0.16-0.53-0.36-1.21-0.62-2.05s-0.52-1.69-0.77-2.55s-0.46-1.62-0.62-2.26
			c-0.16,0.64-0.37,1.43-0.64,2.38c-0.27,0.95-0.54,1.84-0.78,2.68c-0.25,0.84-0.43,1.44-0.54,1.8l-2.46,7.97H162.43z"/>
		<path d="M178.79,165.51v-34.26h7.26v34.26H178.79z"/>
		<path d="M194.67,165.51v-34.26h7.26v28.26h13.9v6H194.67z"/>
		<path d="M241.51,165.51h-19.73v-34.26h19.73v5.95h-12.47v7.52h11.6v5.95h-11.6v8.83h12.47V165.51z"/>
	</g>
</g>
</svg>
